<?xml version="1.0" encoding="UTF-8" standalone="no"?>
<svg
   xmlns:dc="http://purl.org/dc/elements/1.1/"
   xmlns:cc="http://creativecommons.org/ns#"
   xmlns:rdf="http://www.w3.org/1999/02/22-rdf-syntax-ns#"
   xmlns:svg="http://www.w3.org/2000/svg"
   xmlns="http://www.w3.org/2000/svg"
   viewBox="0 0 117.16 38.533333"
   height="38.533333"
   width="117.16"
   xml:space="preserve"
   id="svg2"
   version="1.1"><metadata
     id="metadata8"><rdf:RDF><cc:Work
         rdf:about=""><dc:format>image/svg+xml</dc:format><dc:type
           rdf:resource="http://purl.org/dc/dcmitype/StillImage" /></cc:Work></rdf:RDF></metadata><defs
     id="defs6" /><g
     transform="matrix(1.3333333,0,0,-1.3333333,0,38.533333)"
     id="g10"><g
       transform="scale(0.1)"
       id="g12"><path
         id="path14"
         style="fill:#656263;fill-opacity:1;fill-rule:nonzero;stroke:none"
         d="M 471.887,241.426 640.852,0.148438 H 498.293 C 463.203,-1.00391 429.297,15.5352 408.691,44.9727 L 237.805,288.977 H 383.84 c 35.476,0 68.555,-17.879 88.047,-47.551" /><path
         id="path16"
         style="fill:#656263;fill-opacity:1;fill-rule:nonzero;stroke:none"
         d="M 709.68,241.406 878.652,0.128906 c 0,0 -158.203,-0.285156 -142.558,0 C 700.996,-1.02344 667.09,15.5195 646.484,44.9531 L 475.598,288.957 h 146.05 c 35.461,0 68.547,-17.879 88.032,-47.551" /><path
         id="path18"
         style="fill:#20aadd;fill-opacity:1;fill-rule:nonzero;stroke:none"
         d="M 234.082,241.426 403.059,0.148438 H 260.496 C 225.422,-1.00391 191.492,15.5352 170.898,44.9727 L 0,288.977 h 146.035 c 35.469,0 68.582,-17.879 88.047,-47.551" /></g></g></svg>